<svg xmlns="http://www.w3.org/2000/svg" viewBox="0 0 64 64" fill="none" stroke="white" stroke-width="2.5" stroke-linecap="round" stroke-linejoin="round"><circle cx="32" cy="8" r="2.5"/><path d="M32 10.5v28"/><path d="M16 16h32"/><circle cx="16" cy="16" r="1.8" fill="white"/><circle cx="48" cy="16" r="1.8" fill="white"/><path d="M16 16l-5 12h10L16 16z"/><path d="M10 28c0 3.5 2.7 6 6 6s6-2.5 6-6"/><path d="M48 16l-5 12h10L48 16z"/><path d="M42 28c0 3.5 2.7 6 6 6s6-2.5 6-6"/><rect x="28" y="38.5" width="8" height="4" rx="1"/><path d="M25 43.5h14"/><path d="M23 48h18"/></svg>